<?xml version="1.0" encoding="UTF-8"?>
<svg version="1.1" xmlns="http://www.w3.org/2000/svg" width="2237" height="1027">
<path d="M0 0 C738.21 0 1476.42 0 2237 0 C2237 338.91 2237 677.82 2237 1027 C1498.79 1027 760.58 1027 0 1027 C0 688.09 0 349.18 0 0 Z " fill="#4B4C4D" transform="translate(0,0)"/>
<path d="M0 0 C266.31 0 532.62 0 807 0 C807 338.91 807 677.82 807 1027 C540.69 1027 274.38 1027 0 1027 C0 688.09 0 349.18 0 0 Z " fill="#4B4C4D" transform="translate(1430,0)"/>
<path d="M0 0 C205.59 0 411.18 0 623 0 C623 338.91 623 677.82 623 1027 C417.41 1027 211.82 1027 0 1027 C0 688.09 0 349.18 0 0 Z " fill="#F6951E" transform="translate(807,0)"/>
<path d="M0 0 C1.28139463 -0.00199105 2.56278926 -0.0039821 3.88301402 -0.00603348 C5.30284443 -0.0031806 6.72267465 -0.000235 8.14250469 0.00279331 C9.65237229 0.00235725 11.16223981 0.00148169 12.67210692 0.00020415 C16.82239428 -0.0020339 20.97265587 0.00197107 25.12293994 0.00698221 C29.59801316 0.01129639 34.07308489 0.00983959 38.5481596 0.00907993 C46.30197081 0.00855531 54.05577361 0.01169566 61.80958271 0.01731777 C73.020321 0.02544114 84.23105523 0.02804885 95.44179615 0.02930576 C113.63001376 0.03149496 131.81822689 0.03815148 150.00644207 0.04760838 C167.67571268 0.0567859 185.34498206 0.06386507 203.01425457 0.06811619 C204.10319434 0.06837891 205.19213411 0.06864164 206.31407205 0.06891232 C211.77690488 0.07021735 217.23973772 0.07148106 222.70257056 0.07272422 C268.02985716 0.08309273 313.35713829 0.10098248 358.68442059 0.12304783 C358.68442059 18.27304783 358.68442059 36.42304783 358.68442059 55.12304783 C350.72075359 55.13763035 342.7570866 55.15221287 334.55209637 55.16723728 C309.01573083 55.21608652 283.47942127 55.27952087 257.94311262 55.35203411 C253.97065178 55.36330108 249.9981906 55.37443972 246.02572918 55.385499 C245.23494724 55.38770268 244.4441653 55.38990637 243.62942027 55.39217683 C230.8572678 55.42746379 218.08511539 55.45237634 205.31293239 55.47339485 C192.1888427 55.49522567 179.06481579 55.52834456 165.94077957 55.57174939 C157.85501722 55.59814128 149.76933295 55.61592815 141.68352972 55.62239387 C135.46333369 55.62831552 129.24327958 55.65000967 123.02314281 55.67732334 C120.48610064 55.68605963 117.94903532 55.68983539 115.41197872 55.68805599 C90.73156162 55.67621988 66.21270445 57.00109278 46.68442059 74.12304783 C32.06419205 92.69101033 30.06250196 114.63350542 30.18321514 137.49179173 C30.17931205 139.56972877 30.17366359 141.64766313 30.16644424 143.7255913 C30.15181728 149.37706294 30.16179412 155.02825231 30.17618096 160.67971444 C30.18735968 166.79694725 30.17532565 172.91414267 30.16633892 179.03137302 C30.15325311 190.30092132 30.15815047 201.57037838 30.17241421 212.83991638 C30.1855045 223.25022587 30.19065453 233.66050332 30.18809605 244.07082081 C30.18785542 245.10963013 30.18785542 245.10963013 30.18760994 246.16942549 C30.18694628 248.98112937 30.18624385 251.79283325 30.1854846 254.60453711 C30.17847395 280.93358626 30.19390854 307.26257903 30.22010806 333.59161383 C30.24323539 356.95708998 30.24860418 380.32250422 30.23837566 403.68798923 C30.23577341 409.67580443 30.23318833 415.66361962 30.23077774 421.6514349 C30.23048029 422.38872829 30.23018285 423.12602167 30.22987638 423.88565728 C30.22225517 443.44533132 30.22867899 463.00500033 30.23947376 482.56467211 C30.2406215 484.67009927 30.24176468 486.77552642 30.24290059 488.88095358 C30.24365583 490.27746757 30.24442147 491.67398156 30.24519759 493.07049554 C30.25084486 503.47559536 30.24953358 513.88067913 30.24496937 524.285779 C30.23985283 536.11771925 30.24605171 547.94959743 30.26586366 559.78152768 C30.27571798 565.81467563 30.28086071 571.8477263 30.27297115 577.8808794 C30.26589035 583.4087179 30.27277505 588.93636051 30.29057478 594.46417327 C30.29460359 596.45842405 30.29364591 598.45269281 30.28705592 600.44693677 C30.2241719 621.26641948 33.10866203 643.07862919 47.68442059 659.12304783 C57.56333717 668.60928781 70.63137547 672.40946169 83.68442059 675.12304783 C84.94333835 675.38921862 84.94333835 675.38921862 86.22768879 675.6607666 C91.04414058 676.30488809 95.80186676 676.2766702 100.65619183 676.28126621 C102.31772036 676.28867318 102.31772036 676.28867318 104.01281512 676.29622978 C107.72545164 676.31159114 111.43807088 676.31996176 115.15072918 676.32837009 C117.81168143 676.33794969 120.4726296 676.34791675 123.1335783 676.35836887 C128.86294494 676.38010104 134.59231392 676.39825741 140.3217001 676.41397381 C148.60539397 676.43670217 156.88906255 676.46484086 165.17273493 676.49429309 C178.61297964 676.54193266 192.05323471 676.58520667 205.49350262 676.62573338 C218.54819832 676.66510681 231.60288482 676.70653746 244.65756512 676.75073338 C245.46247758 676.75345765 246.26739005 676.75618192 247.0966938 676.75898875 C251.13476935 676.77266853 255.17284475 676.78638874 259.2109201 676.80012906 C292.70206886 676.91403672 326.19323604 677.02005407 359.68442059 677.12304783 C359.68442059 695.60304783 359.68442059 714.08304783 359.68442059 733.12304783 C314.45184193 733.23625737 269.21929751 733.32569161 223.98660507 733.37837448 C218.63734152 733.38462745 213.28807825 733.39109911 207.93881512 733.39770603 C206.34151123 733.39967336 206.34151123 733.39967336 204.71193857 733.40168043 C187.5063964 733.42339235 170.3009384 733.46279048 153.09544604 733.50881181 C135.41969108 733.55569403 117.74397999 733.58336801 100.06816542 733.5934903 C89.17547819 733.60032514 78.28302894 733.62185271 67.39041503 733.66263016 C59.90447257 733.68921405 52.41865178 733.69701371 44.93266563 733.69055472 C40.62406039 733.68737597 36.31586877 733.69198548 32.00733852 733.7190752 C-1.98725213 733.9219158 -33.16816334 729.42591125 -58.75307941 705.18554783 C-78.55516323 684.40959104 -81.62240451 657.48331346 -81.58973408 630.1886301 C-81.59419011 627.84281474 -81.59950536 625.49700088 -81.6056028 623.15118921 C-81.61826879 617.39478377 -81.62167641 611.63842548 -81.621071 605.88200735 C-81.62084845 598.98155353 -81.63218019 592.0811304 -81.64369719 585.18068791 C-81.66839055 570.08644403 -81.677215 554.99221119 -81.68223368 539.89794988 C-81.68249486 539.11693309 -81.68275603 538.33591631 -81.68302512 537.53123236 C-81.6832854 536.7485809 -81.68354567 535.96592945 -81.68381383 535.15956128 C-81.68690066 526.47218065 -81.69340705 517.78480304 -81.70002651 509.09742451 C-81.71967032 482.83862616 -81.73607673 456.57983107 -81.73890305 430.32102489 C-81.73899711 429.48174154 -81.73909117 428.64245819 -81.73918808 427.77774202 C-81.73956654 424.37675063 -81.73993054 420.97575924 -81.74029106 417.57476785 C-81.74056277 415.01517758 -81.74083945 412.45558731 -81.74111652 409.89599705 C-81.74124856 408.62731355 -81.74124856 408.62731355 -81.74138326 407.33300008 C-81.74428704 380.77323713 -81.76637057 354.21354705 -81.80263996 327.65380955 C-81.8434246 297.78711132 -81.86706205 267.92046273 -81.86736256 238.05373514 C-81.86745937 234.86476635 -81.86762609 231.67579758 -81.86784267 228.4868288 C-81.86788679 227.70167434 -81.8679309 226.91651988 -81.86797635 226.10757285 C-81.86909319 213.50772699 -81.88645797 200.9079545 -81.90966199 188.30813221 C-81.93257871 175.6284393 -81.93668212 162.94884482 -81.9221127 150.26913877 C-81.91471121 143.40869064 -81.91506135 136.54847265 -81.93852329 129.68805408 C-81.9592336 123.39456047 -81.95640057 117.10151162 -81.93564845 110.80802219 C-81.93217655 108.54420563 -81.93696454 106.28035618 -81.95135289 104.01658268 C-82.12748387 74.36901752 -75.12676984 45.33687335 -54.31557941 23.12304783 C-42.09317579 11.1322641 -27.89219062 4.69681176 -11.31557941 1.12304783 C-10.55469322 0.94632544 -9.79380703 0.76960304 -9.00986367 0.58752543 C-5.95828508 0.06145254 -3.09726403 -0.00106253 0 0 Z " fill="#FDFDFD" transform="translate(264.3155794143677,146.87695217132568)"/>
<path d="M0 0 C0.97484848 0.00222061 1.94969696 0.00444122 2.9540863 0.00672913 C4.05515213 0.00680466 5.15621796 0.00688019 6.29064941 0.00695801 C7.48854599 0.01211929 8.68644257 0.01728058 9.92063904 0.02259827 C11.14000656 0.02401321 12.35937408 0.02542816 13.61569214 0.02688599 C17.52856349 0.03250485 21.4413786 0.04506055 25.35423279 0.05775452 C27.99941426 0.06276709 30.64459662 0.06733041 33.28977966 0.07142639 C39.79045005 0.08248041 46.2910874 0.09923688 52.79173279 0.12025452 C51.39820461 3.67532927 49.85737923 6.97000544 47.99095154 10.30384827 C47.43270691 11.30238831 46.87446228 12.30092834 46.29930115 13.32972717 C45.69867859 14.3949762 45.09805603 15.46022522 44.47923279 16.55775452 C43.85476257 17.66940979 43.23029236 18.78106506 42.5868988 19.92640686 C38.03414524 27.99837175 33.35923183 35.99115833 28.61643982 43.95252991 C24.77290801 50.41792025 21.03835496 56.93785096 17.35423279 63.49525452 C12.9647217 71.30755484 8.50900218 79.07591777 3.97923279 86.80775452 C-1.17704347 95.61166431 -6.27676217 104.44629512 -11.33326721 113.30775452 C-11.67232086 113.90184113 -12.01137451 114.49592773 -12.36070251 115.10801697 C-15.19527011 120.07564048 -18.02665168 125.04507723 -20.85670471 130.01527405 C-27.14782042 141.06264887 -33.50532355 152.06745901 -39.92750549 163.03919983 C-44.46592035 170.80900597 -48.90358376 178.63197036 -53.31349182 186.47523499 C-57.78266999 194.40736691 -62.36537255 202.26975274 -66.9690094 210.12440491 C-71.59226494 218.02729039 -76.10680597 225.98773393 -80.59498596 233.96791077 C-84.12747277 240.23829077 -87.73775887 246.45553985 -91.40943909 252.64515686 C-94.83896448 258.44654201 -98.15459839 264.30896257 -101.45826721 270.18275452 C-106.12249466 278.47123625 -110.85130528 286.71888234 -115.64576721 294.93275452 C-116.21263245 295.90414368 -116.77949768 296.87553284 -117.36354065 297.87635803 C-118.1819342 299.27519226 -118.1819342 299.27519226 -119.01686096 300.70228577 C-119.5400592 301.60543518 -120.06325745 302.50858459 -120.60231018 303.43910217 C-121.69554692 305.26426573 -122.83780573 307.06074743 -124.02125549 308.82875061 C-124.87372864 310.12353333 -124.87372864 310.12353333 -125.74342346 311.44447327 C-126.26428528 312.20203918 -126.78514709 312.9596051 -127.3217926 313.74012756 C-128.59047586 317.14646 -127.62980853 318.84283397 -126.20826721 322.12025452 C-125.37515133 323.89959688 -124.50110926 325.66024418 -123.59107971 327.40150452 C-123.07335999 328.39569397 -122.55564026 329.38988342 -122.02223206 330.41419983 C-121.18619446 332.0011969 -121.18619446 332.0011969 -120.33326721 333.62025452 C-119.7488385 334.73754944 -119.16440979 335.85484436 -118.56227112 337.0059967 C-114.97672693 343.83606602 -111.30995314 350.61645583 -107.58326721 357.37025452 C-102.04553345 367.41189803 -96.80665816 377.60041906 -91.58326721 387.80775452 C-91.1663562 388.62239166 -90.74944519 389.43702881 -90.31990051 390.27635193 C-88.69041534 393.46079321 -87.06109043 396.64531642 -85.43205261 399.82998657 C-80.02921923 410.3863904 -74.49894478 420.87083687 -68.87623596 431.31166077 C-67.6323944 433.62267032 -66.38878838 435.93380386 -65.14576721 438.24525452 C-64.8320517 438.82847473 -64.51833618 439.41169495 -64.19511414 440.0125885 C-58.82060263 450.0142616 -53.58214403 460.08239371 -48.39576721 470.18275452 C-48.03161713 470.89186981 -47.66746704 471.60098511 -47.2922821 472.33158875 C-45.87433841 475.09312243 -44.45650377 477.85471208 -43.03884888 480.61639404 C-37.75246745 490.90888905 -32.35480528 501.14004781 -26.86842346 511.32728577 C-19.92757326 524.22127473 -13.0847625 537.15607555 -6.39576721 550.18275452 C-6.03161713 550.89186981 -5.66746704 551.60098511 -5.2922821 552.33158875 C-3.87433841 555.09312243 -2.45650377 557.85471208 -1.03884888 560.61639404 C4.24753255 570.90888905 9.64519472 581.14004781 15.13157654 591.32728577 C16.37274714 593.63312187 17.61362252 595.93911689 18.85423279 598.24525452 C19.32553116 599.12103653 19.32553116 599.12103653 19.80635071 600.01451111 C25.5274918 610.6561719 31.06924803 621.38517334 36.57698059 632.13850403 C40.83353157 640.44423037 45.14447755 648.70500503 49.66673279 656.87025452 C56.01458536 668.33896962 61.94593717 680.01919569 67.91282654 691.68885803 C68.72139093 693.27017187 69.52998417 694.85147096 70.33860779 696.43275452 C70.72931458 697.19688156 71.12002136 697.96100861 71.52256775 698.74829102 C74.88400194 705.31546617 78.29636541 711.85473695 81.76292419 718.36708069 C84.53270547 723.57879968 87.14888426 728.83455746 89.79173279 734.12025452 C53.16173279 734.12025452 16.53173279 734.12025452 -21.20826721 734.12025452 C-26.81826721 723.23025452 -32.42826721 712.34025452 -38.20826721 701.12025452 C-41.17826721 695.84025452 -44.14826721 690.56025452 -47.20826721 685.12025452 C-51.32518611 676.9539072 -51.32518611 676.9539072 -52.98561096 673.57337952 C-57.09406147 665.28443368 -61.44073038 657.1147517 -65.73854065 648.92298889 C-67.08801718 646.34956853 -68.43385256 643.77428376 -69.77857971 641.19837952 C-74.20958216 632.7271374 -78.73277965 624.31321476 -83.33326721 615.93275452 C-86.99571239 609.25272941 -90.56126393 602.54886594 -93.92848206 595.7157135 C-97.3594175 588.76845734 -100.90261581 581.87927299 -104.45826721 574.99525452 C-104.78594086 574.360784 -105.1136145 573.72631348 -105.45121765 573.07261658 C-109.52219515 565.20008011 -113.66987333 557.37700221 -117.95826721 549.62025452 C-123.45872316 539.66418071 -128.65237757 529.55741386 -133.83326721 519.43275452 C-134.2503595 518.61775482 -134.66745178 517.80275513 -135.09718323 516.96305847 C-136.726473 513.77900266 -138.35560952 510.59486851 -139.98445129 507.4105835 C-145.38729233 496.85415806 -150.91757888 486.36969216 -156.54029846 475.92884827 C-157.4666916 474.2073822 -158.39307806 472.48591252 -159.31913757 470.76426697 C-160.26611142 469.0039093 -161.21362842 467.24384385 -162.16114807 465.48377991 C-165.79905705 458.70789382 -169.36987893 451.90069016 -172.88014221 445.05775452 C-173.26830612 444.30124603 -173.65647003 443.54473755 -174.05639648 442.76530457 C-175.96084632 439.04961456 -177.85881227 435.33074439 -179.74952698 431.60804749 C-180.44015844 430.25532403 -181.13083021 428.90262116 -181.82154846 427.54994202 C-182.13545532 426.92732483 -182.44936218 426.30470764 -182.77278137 425.66322327 C-184.06927061 423.13008962 -185.18136531 421.14715642 -187.20826721 419.12025452 C-187.63011292 419.8584845 -188.05195862 420.59671448 -188.48658752 421.35731506 C-189.08052307 422.39670227 -189.67445862 423.43608948 -190.28639221 424.50697327 C-190.6088089 425.07122513 -190.93122559 425.63547699 -191.26341248 426.21682739 C-193.06627444 429.3719299 -194.86930408 432.52693641 -196.67262268 435.68177795 C-199.9351927 441.38986863 -203.197202 447.09825232 -206.45045471 452.81166077 C-212.21237961 462.92554496 -218.0474066 472.99356089 -223.92750549 483.03919983 C-227.91516123 489.86610151 -231.83295373 496.72903878 -235.70826721 503.62025452 C-240.07802572 511.3901114 -244.51532952 519.11577591 -249.02076721 526.80775452 C-254.17695153 535.6117188 -259.27676164 544.44629419 -264.33326721 553.30775452 C-264.67232086 553.90184113 -265.01137451 554.49592773 -265.36070251 555.10801697 C-268.19527011 560.07564048 -271.02665168 565.04507723 -273.85670471 570.01527405 C-280.14782042 581.06264887 -286.50532355 592.06745901 -292.92750549 603.03919983 C-296.91516123 609.86610151 -300.83295373 616.72903878 -304.70826721 623.62025452 C-309.07802572 631.3901114 -313.51532952 639.11577591 -318.02076721 646.80775452 C-323.17695153 655.6117188 -328.27676164 664.44629419 -333.33326721 673.30775452 C-333.67232086 673.90184113 -334.01137451 674.49592773 -334.36070251 675.10801697 C-337.19527011 680.07564048 -340.02665168 685.04507723 -342.85670471 690.01527405 C-349.42172517 701.54363326 -356.04991344 713.03223341 -362.75367737 724.48060608 C-363.60325012 725.93225159 -363.60325012 725.93225159 -364.46998596 727.41322327 C-364.97489563 728.27455872 -365.4798053 729.13589417 -366.00001526 730.02333069 C-366.77455001 731.36753739 -367.5144667 732.7326535 -368.20826721 734.12025452 C-386.68826721 734.12025452 -405.16826721 734.12025452 -424.20826721 734.12025452 C-414.90226164 717.05924431 -405.42511428 700.11075764 -395.59645081 683.34510803 C-391.12662544 675.71446875 -386.71552127 668.05141484 -382.33326721 660.37025452 C-382.00056824 659.78726593 -381.66786926 659.20427734 -381.3250885 658.60362244 C-378.95125386 654.44338903 -376.57950327 650.28196946 -374.20826721 646.12025452 C-371.50137345 641.3694326 -368.79356375 636.61913618 -366.08326721 631.87025452 C-365.75022583 631.28667175 -365.41718445 630.70308899 -365.0740509 630.1018219 C-359.93392834 621.09904428 -354.72892946 612.1356376 -349.4924469 603.18861389 C-345.06155154 595.60780478 -340.68541942 587.99645701 -336.33326721 580.37025452 C-336.00038696 579.78699402 -335.66750671 579.20373352 -335.32453918 578.60279846 C-332.95088336 574.44284223 -330.57934021 570.28168329 -328.20826721 566.12025452 C-325.50137345 561.3694326 -322.79356375 556.61913618 -320.08326721 551.87025452 C-319.58370514 550.99488037 -319.58370514 550.99488037 -319.0740509 550.1018219 C-313.93392834 541.09904428 -308.72892946 532.1356376 -303.4924469 523.18861389 C-299.06155154 515.60780478 -294.68541942 507.99645701 -290.33326721 500.37025452 C-290.00038696 499.78699402 -289.66750671 499.20373352 -289.32453918 498.60279846 C-286.95088336 494.44284223 -284.57934021 490.28168329 -282.20826721 486.12025452 C-279.50137345 481.3694326 -276.79356375 476.61913618 -274.08326721 471.87025452 C-273.75022583 471.28667175 -273.41718445 470.70308899 -273.0740509 470.1018219 C-267.93392834 461.09904428 -262.72892946 452.1356376 -257.4924469 443.18861389 C-253.0615516 435.60780488 -248.6854101 427.99646235 -244.33326721 420.37025452 C-243.83793488 419.50234283 -243.83793488 419.50234283 -243.33259583 418.61689758 C-240.95628226 414.45222582 -238.58214819 410.28631318 -236.20826721 406.12025452 C-233.68066293 401.68478131 -231.15210661 397.24985427 -228.6217804 392.81593323 C-227.61730989 391.05493675 -226.61418093 389.29317526 -225.61109924 387.53138733 C-224.99089905 386.44438538 -224.37069885 385.35738342 -223.73170471 384.23744202 C-222.85143616 382.68234924 -222.85143616 382.68234924 -221.9533844 381.09584045 C-220.80342131 379.1350472 -219.60124283 377.20382913 -218.34596252 375.30873108 C-214.99119679 370.552078 -214.99119679 370.552078 -214.57154846 365.00306702 C-215.11166565 364.05173889 -215.65178284 363.10041077 -216.20826721 362.12025452 C-216.82808136 360.86830524 -217.44644808 359.61563882 -218.06373596 358.36244202 C-218.83630858 356.90417515 -219.61403385 355.44863116 -220.39576721 353.99525452 C-220.83010071 353.17815002 -221.2644342 352.36104553 -221.71192932 351.5191803 C-224.32750615 346.60676752 -226.96809316 341.70782099 -229.60670471 336.80775452 C-230.82844567 334.53712926 -232.04978766 332.2662893 -233.27076721 329.99525452 C-233.58294189 329.41484406 -233.89511658 328.83443359 -234.2167511 328.23643494 C-240.72003328 316.13431289 -247.0096055 303.92558881 -253.28242493 291.7028656 C-253.62920288 291.02720551 -253.97598083 290.35154541 -254.33326721 289.65541077 C-254.67343872 288.99256073 -255.01361023 288.32971069 -255.36408997 287.64677429 C-258.42936195 281.67909695 -261.54109792 275.73671679 -264.6787262 269.80677795 C-266.82022986 265.75914065 -268.94721294 261.7046259 -271.05592346 257.63978577 C-275.86628381 248.37004902 -280.72240581 239.13777771 -285.77076721 229.99525452 C-291.3279576 219.9113087 -296.5886411 209.68139499 -301.83326721 199.43275452 C-302.25008759 198.61829865 -302.66690796 197.80384277 -303.09635925 196.96470642 C-304.72594212 193.7800724 -306.35536123 190.59535467 -307.98449707 187.41049194 C-313.38732662 176.85409892 -318.91759503 166.36966217 -324.54029846 155.92884827 C-325.78406086 153.61779654 -327.02757584 151.3066133 -328.27076721 148.99525452 C-328.74084198 148.12191971 -328.74084198 148.12191971 -329.22041321 147.23094177 C-335.34369691 135.84452666 -341.27364406 124.36209874 -347.1342926 112.83851624 C-350.95381631 105.35148707 -354.90943866 97.9669117 -359.08653259 90.6723175 C-362.27962708 85.08081528 -365.14704061 79.35254238 -367.98561096 73.57337952 C-372.09406147 65.28443368 -376.44073038 57.1147517 -380.73854065 48.92298889 C-382.08801718 46.34956853 -383.43385256 43.77428376 -384.77857971 41.19837952 C-388.28402844 34.4975875 -391.81506974 27.81565932 -395.46217346 21.19056702 C-396.01195862 20.19097961 -396.56174377 19.19139221 -397.12818909 18.16151428 C-398.20195341 16.21427908 -399.27990778 14.26934697 -400.36256409 12.32704163 C-400.84918518 11.44540344 -401.33580627 10.56376526 -401.83717346 9.65541077 C-402.27102356 8.87560852 -402.70487366 8.09580627 -403.15187073 7.29237366 C-404.20826721 5.12025452 -404.20826721 5.12025452 -405.20826721 1.12025452 C-368.90826721 1.12025452 -332.60826721 1.12025452 -295.20826721 1.12025452 C-286.22244682 16.8454402 -286.22244682 16.8454402 -283.34889221 22.49525452 C-282.70851829 23.74737395 -282.06813717 24.9994897 -281.42774963 26.25160217 C-281.10680328 26.88221558 -280.78585693 27.51282898 -280.45518494 28.16255188 C-275.56605949 37.76359873 -270.6186336 47.32058194 -265.39576721 56.74525452 C-258.58846345 69.05351826 -252.24591863 81.60111458 -245.8419342 94.12199402 C-245.44333191 94.9013028 -245.04472961 95.68061157 -244.63404846 96.48353577 C-244.24189148 97.25035675 -243.8497345 98.01717773 -243.44569397 98.80723572 C-239.85774076 105.81724568 -236.20411776 112.79095037 -232.51686096 119.74916077 C-230.78444531 123.0194832 -229.07260056 126.2999718 -227.36842346 129.58509827 C-222.55570348 138.86018097 -217.69694694 148.09762738 -212.64576721 157.24525452 C-207.08857682 167.32920033 -201.82789333 177.55911405 -196.58326721 187.80775452 C-196.16644684 188.62221039 -195.74962646 189.43666626 -195.32017517 190.27580261 C-193.69059231 193.46043663 -192.06117319 196.64515437 -190.43203735 199.83001709 C-184.90260484 210.63377505 -179.23083834 221.35750405 -173.48951721 232.04994202 C-173.15840942 232.66689438 -172.82730164 233.28384674 -172.48616028 233.91949463 C-170.8464878 236.97432351 -169.204919 240.02809408 -167.55885315 243.07948303 C-163.64167811 250.36294779 -159.86114822 257.70065618 -156.20826721 265.12025452 C-153.36274681 261.71191805 -151.0261512 258.28558467 -148.84498596 254.42103577 C-148.21334534 253.3079303 -147.58170471 252.19482483 -146.93092346 251.04798889 C-146.59979553 250.45977356 -146.2686676 249.87155823 -145.92750549 249.26551819 C-144.51237011 246.75169393 -143.08771517 244.24330716 -141.66374207 241.73448181 C-140.9273798 240.436854 -140.19152361 239.13893888 -139.4561615 237.84074402 C-135.90868584 231.58022122 -132.31218528 225.34843609 -128.70826721 219.12025452 C-123.5153604 210.13513667 -118.35160405 201.13379885 -113.20826721 192.12025452 C-104.97253609 177.6888609 -96.66777764 163.29769068 -88.35377502 148.91127014 C-86.49224049 145.68957177 -84.63127882 142.46754373 -82.77076721 139.24525452 C-82.15523987 138.17919983 -81.53971252 137.11314514 -80.90553284 136.01478577 C-75.95373679 127.43029855 -71.04001853 118.82445159 -66.13090515 110.2155304 C-61.53432446 102.15762149 -56.8949409 94.12612679 -52.20826721 86.12025452 C-47.2008162 77.56476044 -42.24671337 68.9800151 -37.33326721 60.37025452 C-37.00171631 59.78932037 -36.67016541 59.20838623 -36.3285675 58.60984802 C-33.95358274 54.44753406 -31.58074496 50.2839978 -29.20826721 46.12025452 C-13.36877791 18.32283527 -13.36877791 18.32283527 -7.27076721 7.93275452 C-6.86358459 7.23770813 -6.45640198 6.54266174 -6.03688049 5.82655334 C-2.68506152 0.14621907 -2.68506152 0.14621907 0 0 Z " fill="#FEFEFE" transform="translate(2014.208267211914,145.87974548339844)"/>
<path d="M0 0 C60.39 0 120.78 0 183 0 C183 223.41 183 446.82 183 677 C204.78 677 226.56 677 249 677 C249 695.48 249 713.96 249 733 C166.83 733 84.66 733 0 733 C0 714.52 0 696.04 0 677 C24.09 677 48.18 677 73 677 C73 471.74 73 266.48 73 55 C48.91 55 24.82 55 0 55 C0 36.85 0 18.7 0 0 Z " fill="#FEFEFE" transform="translate(994,147)"/>
</svg>
